<?xml version="1.0" encoding="UTF-8" standalone="no"?>
<!-- Created with Inkscape (http://www.inkscape.org/) -->

<svg
   xmlns:dc="http://purl.org/dc/elements/1.1/"
   xmlns:cc="http://creativecommons.org/ns#"
   xmlns:rdf="http://www.w3.org/1999/02/22-rdf-syntax-ns#"
   xmlns:svg="http://www.w3.org/2000/svg"
   xmlns="http://www.w3.org/2000/svg"
   xmlns:sodipodi="http://sodipodi.sourceforge.net/DTD/sodipodi-0.dtd"
   xmlns:inkscape="http://www.inkscape.org/namespaces/inkscape"
   id="svg7384"
   sodipodi:docname="m30.svg"
   version="1.1"
   inkscape:version="0.92.4 (unknown)"
   height="225"
   width="400"
   inkscape:export-filename="/home/hughsie/Code/8bitdo-firmware/screenshots/M30.png"
   inkscape:export-xdpi="96"
   inkscape:export-ydpi="96">
  <metadata
     id="metadata90">
    <rdf:RDF>
      <cc:Work
         rdf:about="">
        <dc:format>image/svg+xml</dc:format>
        <dc:type
           rdf:resource="http://purl.org/dc/dcmitype/StillImage" />
        <dc:title>Gnome Symbolic Icon Theme</dc:title>
      </cc:Work>
    </rdf:RDF>
  </metadata>
  <sodipodi:namedview
     inkscape:cy="272.99053"
     pagecolor="#ffffff"
     borderopacity="1"
     showborder="true"
     inkscape:bbox-paths="false"
     guidetolerance="10"
     inkscape:object-paths="false"
     inkscape:window-width="3840"
     showguides="true"
     inkscape:object-nodes="true"
     inkscape:snap-bbox="true"
     inkscape:pageshadow="2"
     inkscape:guide-bbox="true"
     inkscape:snap-nodes="false"
     bordercolor="#676767"
     objecttolerance="10"
     id="namedview88"
     showgrid="false"
     inkscape:window-maximized="1"
     inkscape:window-x="0"
     inkscape:snap-global="true"
     inkscape:window-y="0"
     gridtolerance="10"
     inkscape:window-height="1563"
     inkscape:snap-others="false"
     inkscape:snap-to-guides="true"
     inkscape:current-layer="layer12"
     inkscape:snap-bbox-midpoints="false"
     inkscape:zoom="2"
     inkscape:cx="298.29478"
     inkscape:snap-grids="true"
     inkscape:pageopacity="0"
     inkscape:showpageshadow="false">
    <inkscape:grid
       spacingx="1"
       spacingy="1"
       id="grid4866"
       empspacing="2"
       enabled="true"
       type="xygrid"
       snapvisiblegridlinesonly="true"
       visible="true"
       originx="0"
       originy="0" />
  </sodipodi:namedview>
  <title
     id="title9167">Gnome Symbolic Icon Theme</title>
  <defs
     id="defs7386" />
  <g
     inkscape:label="figures"
     transform="translate(-569.10098,-638)"
     inkscape:groupmode="layer"
     id="layer12"
     style="display:inline">
    <g
       id="g4842"
       transform="translate(-0.80097898,2.8818863)">
      <path
         sodipodi:nodetypes="ccccccscccscc"
         inkscape:export-ydpi="84.330002"
         inkscape:export-xdpi="84.330002"
         style="color:#000000;clip-rule:evenodd;display:inline;overflow:visible;visibility:visible;opacity:1;isolation:auto;mix-blend-mode:normal;color-interpolation:sRGB;color-interpolation-filters:linearRGB;solid-color:#000000;solid-opacity:1;fill:#cacac4;fill-opacity:1;fill-rule:evenodd;stroke:#babdb6;stroke-width:3;stroke-linecap:butt;stroke-linejoin:miter;stroke-miterlimit:4;stroke-dasharray:none;stroke-dashoffset:0;stroke-opacity:1;color-rendering:auto;image-rendering:optimizeQuality;shape-rendering:geometricPrecision;text-rendering:geometricPrecision;enable-background:accumulate"
         inkscape:connector-curvature="0"
         id="path4823"
         d="m 822.03627,667.9592 -1.125,2.01351 -47.10808,2.5 h -7.69604 l -48.27409,-3 c -9.4554,-15.85642 -76.69316,-4.7267 -83.68613,5.15544 -32.08204,11.20948 -44.82411,59.62727 -45.63675,103.54988 -0.60295,32.58907 17.95645,64.59406 53.64651,64.59406 62.43035,-1.68019 65.72081,-33.29127 126.70046,-32.43797 65.5924,-0.0257 78.29781,34.98304 131.46578,32.43797 41.36414,-3.69933 50.82751,-33.479 50.98407,-72.37224 0.16723,-41.54355 -21.3598,-82.81222 -44.2096,-96.0217 -5.35016,-4.48197 -58.73591,-17.55299 -85.06113,-6.41895 z"
         class="fil1 str9" />
      <path
         inkscape:export-ydpi="84.330002"
         inkscape:export-xdpi="84.330002"
         style="color:#000000;clip-rule:evenodd;display:inline;overflow:visible;visibility:visible;opacity:1;isolation:auto;mix-blend-mode:normal;color-interpolation:sRGB;color-interpolation-filters:linearRGB;solid-color:#000000;solid-opacity:1;fill:#cacac4;fill-opacity:1;fill-rule:evenodd;stroke:#babdb6;stroke-width:1;stroke-linecap:butt;stroke-linejoin:miter;stroke-miterlimit:4;stroke-dasharray:none;stroke-dashoffset:0;stroke-opacity:1;color-rendering:auto;image-rendering:optimizeQuality;shape-rendering:geometricPrecision;text-rendering:geometricPrecision;enable-background:accumulate"
         inkscape:connector-curvature="0"
         id="path325-5"
         d="m 795.81365,732.79204 c 0,-36.99792 30.2189,-67.02763 67.24536,-67.02763 37.02645,0 67.07931,30.02971 67.07931,67.02763 0,36.99792 -30.05286,67.19354 -67.07931,67.19354 -37.02646,0 -67.24536,-30.19562 -67.24536,-67.19354 z"
         class="fil1 str8" />
      <path
         class="fil1 str9"
         d="m 822.03627,659.9592 -1.125,2.01351 -47.10808,2.5 h -7.69604 l -48.27409,-3 c -9.4554,-15.85642 -76.69316,-4.7267 -83.68613,5.15544 -32.08204,11.20948 -44.82411,59.62727 -45.63675,103.54988 -0.60295,32.58907 17.95645,64.59406 53.64651,64.59406 62.43035,-1.68019 65.72081,-33.29127 126.70046,-32.43797 65.5924,-0.0257 78.29781,34.98304 131.46578,32.43797 41.36414,-3.69933 50.82751,-33.479 50.98407,-72.37224 0.16723,-41.54355 -21.3598,-82.81222 -44.2096,-96.0217 -5.35016,-4.48197 -58.73591,-17.55299 -85.06113,-6.41895 z"
         id="path13655"
         inkscape:connector-curvature="0"
         style="color:#000000;clip-rule:evenodd;display:inline;overflow:visible;visibility:visible;opacity:1;isolation:auto;mix-blend-mode:normal;color-interpolation:sRGB;color-interpolation-filters:linearRGB;solid-color:#000000;solid-opacity:1;fill:#eeeeec;fill-opacity:1;fill-rule:evenodd;stroke:#babdb6;stroke-width:3;stroke-linecap:butt;stroke-linejoin:miter;stroke-miterlimit:4;stroke-dasharray:none;stroke-dashoffset:0;stroke-opacity:1;color-rendering:auto;image-rendering:optimizeQuality;shape-rendering:geometricPrecision;text-rendering:geometricPrecision;enable-background:accumulate"
         inkscape:export-xdpi="84.330002"
         inkscape:export-ydpi="84.330002"
         sodipodi:nodetypes="ccccccscccscc" />
      <path
         inkscape:export-ydpi="84.330002"
         inkscape:export-xdpi="84.330002"
         style="color:#000000;clip-rule:nonzero;display:inline;overflow:visible;visibility:visible;opacity:1;isolation:auto;mix-blend-mode:normal;color-interpolation:sRGB;color-interpolation-filters:linearRGB;solid-color:#000000;solid-opacity:1;fill:#cc0000;fill-opacity:1;fill-rule:nonzero;stroke:none;stroke-width:0.57874101;stroke-linecap:butt;stroke-linejoin:miter;stroke-miterlimit:4;stroke-dasharray:none;stroke-dashoffset:0;stroke-opacity:1;color-rendering:auto;image-rendering:auto;shape-rendering:auto;text-rendering:auto;enable-background:accumulate"
         inkscape:connector-curvature="0"
         id="path343"
         d="m 781.24252,733.73302 c -0.0765,2.48816 -1.96771,4.58715 -4.45636,4.50884 l -19.96069,-0.0304 c -2.59228,0.0513 -4.58941,-1.97083 -4.51297,-4.45899 -0.0272,-2.3586 1.99377,-4.35388 4.45637,-4.50886 l 19.9607,0.0304 c 2.48864,0.0783 4.48578,2.1004 4.51295,4.459 z"
         class="fil1 str8" />
      <path
         inkscape:export-ydpi="84.330002"
         inkscape:export-xdpi="84.330002"
         style="clip-rule:evenodd;display:inline;fill:none;fill-rule:nonzero;stroke:#babdb6;stroke-width:0.96248251;stroke-miterlimit:4;stroke-dasharray:none;stroke-opacity:1;image-rendering:optimizeQuality;shape-rendering:geometricPrecision;text-rendering:geometricPrecision"
         inkscape:connector-curvature="0"
         id="path339"
         d="m 635.86019,733.13553 c 0,-22.19627 18.05836,-40.24072 40.43156,-40.24072 22.21339,0 40.27177,18.04445 40.27177,40.24072 0,22.35596 -18.05838,40.40043 -40.27177,40.40043 -22.3732,0 -40.43156,-18.04447 -40.43156,-40.40043 z"
         class="fil1 str8" />
      <path
         inkscape:export-ydpi="84.330002"
         inkscape:export-xdpi="84.330002"
         style="color:#000000;clip-rule:nonzero;display:inline;overflow:visible;visibility:visible;opacity:1;isolation:auto;mix-blend-mode:normal;color-interpolation:sRGB;color-interpolation-filters:linearRGB;solid-color:#000000;solid-opacity:1;fill:#babdb6;fill-opacity:1;fill-rule:nonzero;stroke:none;stroke-width:0.56589419;stroke-linecap:butt;stroke-linejoin:miter;stroke-miterlimit:4;stroke-dasharray:none;stroke-dashoffset:0;stroke-opacity:1;color-rendering:auto;image-rendering:auto;shape-rendering:auto;text-rendering:auto;enable-background:accumulate"
         inkscape:connector-curvature="0"
         id="path345"
         d="m 707.38348,724.77958 c 0,-1.62228 -1.29882,-2.9201 -2.76,-2.9201 H 690.3365 c -1.46118,0 -2.75999,-1.13558 -2.75999,-2.75786 v -14.27599 c 0,-1.46003 -1.29882,-2.75786 -2.92235,-2.75786 h -16.88463 c -1.46117,0 -2.75998,1.29783 -2.75998,2.75786 v 14.27599 c 0,1.62228 -1.29882,2.75786 -2.92235,2.75786 h -14.12464 c -1.62353,0 -2.92234,1.29782 -2.92234,2.9201 v 16.87161 c 0,1.62228 1.29881,2.92009 2.92234,2.92009 h 14.12464 c 1.62353,0 2.92235,1.13559 2.92235,2.75787 v 14.27597 c 0,1.46005 1.29881,2.75787 2.75999,2.75787 h 16.88462 c 1.62353,0 2.92235,-1.29782 2.92235,-2.75787 v -14.27597 c 0,-1.62228 1.29881,-2.75787 2.75999,-2.75787 h 14.28698 c 1.46118,0 2.76,-1.29781 2.76,-2.92009 z"
         class="fil1 str8" />
      <path
         inkscape:export-ydpi="84.330002"
         inkscape:export-xdpi="84.330002"
         style="color:#000000;clip-rule:nonzero;display:inline;overflow:visible;visibility:visible;opacity:1;isolation:auto;mix-blend-mode:normal;color-interpolation:sRGB;color-interpolation-filters:linearRGB;solid-color:#000000;solid-opacity:1;fill:#babdb6;fill-opacity:1;fill-rule:nonzero;stroke:none;stroke-width:0.36478576;stroke-linecap:butt;stroke-linejoin:miter;stroke-miterlimit:4;stroke-dasharray:none;stroke-dashoffset:0;stroke-opacity:1;color-rendering:auto;image-rendering:auto;shape-rendering:auto;text-rendering:auto;enable-background:accumulate"
         inkscape:connector-curvature="0"
         id="path331-3"
         d="m 734.76745,770.23372 c 0,-4.60127 3.7676,-8.36596 8.47708,-8.36596 4.60483,0 8.37241,3.76469 8.37241,8.36596 0,4.70586 -3.76758,8.47055 -8.37241,8.47055 -4.70948,0 -8.47708,-3.76469 -8.47708,-8.47055 z"
         class="fil1 str8" />
      <path
         inkscape:export-ydpi="84.330002"
         inkscape:export-xdpi="84.330002"
         style="color:#000000;clip-rule:nonzero;display:inline;overflow:visible;visibility:visible;opacity:1;isolation:auto;mix-blend-mode:normal;color-interpolation:sRGB;color-interpolation-filters:linearRGB;solid-color:#000000;solid-opacity:1;fill:#babdb6;fill-opacity:1;fill-rule:nonzero;stroke:none;stroke-width:0.36478576;stroke-linecap:butt;stroke-linejoin:miter;stroke-miterlimit:4;stroke-dasharray:none;stroke-dashoffset:0;stroke-opacity:1;color-rendering:auto;image-rendering:auto;shape-rendering:auto;text-rendering:auto;enable-background:accumulate"
         inkscape:connector-curvature="0"
         id="path331-3-6"
         d="m 758.67624,770.23372 c 0,-4.60127 3.7676,-8.36596 8.47708,-8.36596 4.60483,0 8.37241,3.76469 8.37241,8.36596 0,4.70586 -3.76758,8.47055 -8.37241,8.47055 -4.70948,0 -8.47708,-3.76469 -8.47708,-8.47055 z"
         class="fil1 str8" />
      <path
         inkscape:export-ydpi="84.330002"
         inkscape:export-xdpi="84.330002"
         style="color:#000000;clip-rule:nonzero;display:inline;overflow:visible;visibility:visible;opacity:1;isolation:auto;mix-blend-mode:normal;color-interpolation:sRGB;color-interpolation-filters:linearRGB;solid-color:#000000;solid-opacity:1;fill:#babdb6;fill-opacity:1;fill-rule:nonzero;stroke:none;stroke-width:0.36478576;stroke-linecap:butt;stroke-linejoin:miter;stroke-miterlimit:4;stroke-dasharray:none;stroke-dashoffset:0;stroke-opacity:1;color-rendering:auto;image-rendering:auto;shape-rendering:auto;text-rendering:auto;enable-background:accumulate"
         inkscape:connector-curvature="0"
         id="path331-3-6-7"
         d="m 782.17624,770.23372 c 0,-4.60127 3.7676,-8.36596 8.47708,-8.36596 4.60483,0 8.37241,3.76469 8.37241,8.36596 0,4.70586 -3.76758,8.47055 -8.37241,8.47055 -4.70948,0 -8.47708,-3.76469 -8.47708,-8.47055 z"
         class="fil1 str8" />
      <path
         inkscape:export-ydpi="84.330002"
         inkscape:export-xdpi="84.330002"
         style="color:#000000;clip-rule:nonzero;display:inline;overflow:visible;visibility:visible;opacity:1;isolation:auto;mix-blend-mode:normal;color-interpolation:sRGB;color-interpolation-filters:linearRGB;solid-color:#000000;solid-opacity:1;fill:#babdb6;fill-opacity:1;fill-rule:nonzero;stroke:none;stroke-width:0.54082489;stroke-linecap:butt;stroke-linejoin:miter;stroke-miterlimit:4;stroke-dasharray:none;stroke-dashoffset:0;stroke-opacity:1;color-rendering:auto;image-rendering:auto;shape-rendering:auto;text-rendering:auto;enable-background:accumulate"
         inkscape:connector-curvature="0"
         id="path329-3"
         d="m 808.10993,725.42247 c 0,-6.82177 5.58575,-12.40323 12.41279,-12.40323 6.98221,0 12.56796,5.58146 12.56796,12.40323 0,6.97682 -5.58575,12.55828 -12.56796,12.55828 -6.82704,0 -12.41279,-5.58146 -12.41279,-12.55828 z"
         class="fil1 str8" />
      <path
         inkscape:export-ydpi="84.330002"
         inkscape:export-xdpi="84.330002"
         style="color:#000000;clip-rule:nonzero;display:inline;overflow:visible;visibility:visible;opacity:1;isolation:auto;mix-blend-mode:normal;color-interpolation:sRGB;color-interpolation-filters:linearRGB;solid-color:#000000;solid-opacity:1;fill:#babdb6;fill-opacity:1;fill-rule:nonzero;stroke:none;stroke-width:0.54082489;stroke-linecap:butt;stroke-linejoin:miter;stroke-miterlimit:4;stroke-dasharray:none;stroke-dashoffset:0;stroke-opacity:1;color-rendering:auto;image-rendering:auto;shape-rendering:auto;text-rendering:auto;enable-background:accumulate"
         inkscape:connector-curvature="0"
         id="path329-3-5"
         d="m 839.23561,710.29747 c 0,-6.82177 5.58575,-12.40323 12.41279,-12.40323 6.98221,0 12.56796,5.58146 12.56796,12.40323 0,6.97682 -5.58575,12.55828 -12.56796,12.55828 -6.82704,0 -12.41279,-5.58146 -12.41279,-12.55828 z"
         class="fil1 str8" />
      <path
         inkscape:export-ydpi="84.330002"
         inkscape:export-xdpi="84.330002"
         style="color:#000000;clip-rule:nonzero;display:inline;overflow:visible;visibility:visible;opacity:1;isolation:auto;mix-blend-mode:normal;color-interpolation:sRGB;color-interpolation-filters:linearRGB;solid-color:#000000;solid-opacity:1;fill:#babdb6;fill-opacity:1;fill-rule:nonzero;stroke:none;stroke-width:0.54082489;stroke-linecap:butt;stroke-linejoin:miter;stroke-miterlimit:4;stroke-dasharray:none;stroke-dashoffset:0;stroke-opacity:1;color-rendering:auto;image-rendering:auto;shape-rendering:auto;text-rendering:auto;enable-background:accumulate"
         inkscape:connector-curvature="0"
         id="path329-3-6"
         d="m 871.48561,701.04747 c 0,-6.82177 5.58575,-12.40323 12.41279,-12.40323 6.98221,0 12.56796,5.58146 12.56796,12.40323 0,6.97682 -5.58575,12.55828 -12.56796,12.55828 -6.82704,0 -12.41279,-5.58146 -12.41279,-12.55828 z"
         class="fil1 str8" />
      <path
         inkscape:export-ydpi="84.330002"
         inkscape:export-xdpi="84.330002"
         style="color:#000000;clip-rule:nonzero;display:inline;overflow:visible;visibility:visible;opacity:1;isolation:auto;mix-blend-mode:normal;color-interpolation:sRGB;color-interpolation-filters:linearRGB;solid-color:#000000;solid-opacity:1;fill:#babdb6;fill-opacity:1;fill-rule:nonzero;stroke:none;stroke-width:0.73040551;stroke-linecap:butt;stroke-linejoin:miter;stroke-miterlimit:4;stroke-dasharray:none;stroke-dashoffset:0;stroke-opacity:1;color-rendering:auto;image-rendering:auto;shape-rendering:auto;text-rendering:auto;enable-background:accumulate"
         inkscape:connector-curvature="0"
         id="path329-3-2"
         d="m 815.48561,765.39529 c 0,-9.21307 7.54378,-16.75105 16.76397,-16.75105 9.42975,0 16.97352,7.53798 16.97352,16.75105 0,9.42248 -7.54377,16.96046 -16.97352,16.96046 -9.22019,0 -16.76397,-7.53798 -16.76397,-16.96046 z"
         class="fil1 str8" />
      <path
         inkscape:export-ydpi="84.330002"
         inkscape:export-xdpi="84.330002"
         style="color:#000000;clip-rule:nonzero;display:inline;overflow:visible;visibility:visible;opacity:1;isolation:auto;mix-blend-mode:normal;color-interpolation:sRGB;color-interpolation-filters:linearRGB;solid-color:#000000;solid-opacity:1;fill:#babdb6;fill-opacity:1;fill-rule:nonzero;stroke:none;stroke-width:0.73040551;stroke-linecap:butt;stroke-linejoin:miter;stroke-miterlimit:4;stroke-dasharray:none;stroke-dashoffset:0;stroke-opacity:1;color-rendering:auto;image-rendering:auto;shape-rendering:auto;text-rendering:auto;enable-background:accumulate"
         inkscape:connector-curvature="0"
         id="path329-3-2-9"
         d="m 849.35724,746.52029 c 0,-9.21307 7.54378,-16.75105 16.76397,-16.75105 9.42975,0 16.97352,7.53798 16.97352,16.75105 0,9.42248 -7.54377,16.96046 -16.97352,16.96046 -9.22019,0 -16.76397,-7.53798 -16.76397,-16.96046 z"
         class="fil1 str8" />
      <path
         inkscape:export-ydpi="84.330002"
         inkscape:export-xdpi="84.330002"
         style="color:#000000;clip-rule:nonzero;display:inline;overflow:visible;visibility:visible;opacity:1;isolation:auto;mix-blend-mode:normal;color-interpolation:sRGB;color-interpolation-filters:linearRGB;solid-color:#000000;solid-opacity:1;fill:#babdb6;fill-opacity:1;fill-rule:nonzero;stroke:none;stroke-width:0.73040551;stroke-linecap:butt;stroke-linejoin:miter;stroke-miterlimit:4;stroke-dasharray:none;stroke-dashoffset:0;stroke-opacity:1;color-rendering:auto;image-rendering:auto;shape-rendering:auto;text-rendering:auto;enable-background:accumulate"
         inkscape:connector-curvature="0"
         id="path329-3-2-1"
         d="m 886.60724,735.27029 c 0,-9.21307 7.54378,-16.75105 16.76397,-16.75105 9.42975,0 16.97352,7.53798 16.97352,16.75105 0,9.42248 -7.54377,16.96046 -16.97352,16.96046 -9.22019,0 -16.76397,-7.53798 -16.76397,-16.96046 z"
         class="fil1 str8" />
      <path
         class="fil1 str9"
         d="m 717.87035,661.63859 0.25,-4.88851 c 0.10864,-2.12444 -19.68729,-5.27794 -37.72601,-5.38514 -20.29421,0.22864 -48.57706,6.06907 -46.21012,15.42909 40.77666,-13.39797 56.99793,-8.28791 83.68613,-5.15544 z"
         id="path13655-7"
         inkscape:connector-curvature="0"
         style="color:#000000;clip-rule:evenodd;display:inline;overflow:visible;visibility:visible;opacity:1;isolation:auto;mix-blend-mode:normal;color-interpolation:sRGB;color-interpolation-filters:linearRGB;solid-color:#000000;solid-opacity:1;fill:#cc0000;fill-opacity:1;fill-rule:evenodd;stroke:none;stroke-width:1.0819397;stroke-linecap:butt;stroke-linejoin:miter;stroke-miterlimit:4;stroke-dasharray:none;stroke-dashoffset:0;stroke-opacity:1;color-rendering:auto;image-rendering:optimizeQuality;shape-rendering:geometricPrecision;text-rendering:geometricPrecision;enable-background:accumulate"
         inkscape:export-xdpi="84.330002"
         inkscape:export-ydpi="84.330002"
         sodipodi:nodetypes="csccc" />
      <path
         class="fil1 str9"
         d="m 821.10068,661.10633 -0.25,-4.88851 c -0.10864,-2.12444 19.68729,-5.27794 37.72601,-5.38514 20.29421,0.22864 48.57706,6.06907 46.21012,15.42909 -40.77666,-13.39797 -56.99793,-8.28791 -83.68613,-5.15544 z"
         id="path13655-7-9"
         inkscape:connector-curvature="0"
         style="color:#000000;clip-rule:evenodd;display:inline;overflow:visible;visibility:visible;opacity:1;isolation:auto;mix-blend-mode:normal;color-interpolation:sRGB;color-interpolation-filters:linearRGB;solid-color:#000000;solid-opacity:1;fill:#cc0000;fill-opacity:1;fill-rule:evenodd;stroke:none;stroke-width:1.0819397;stroke-linecap:butt;stroke-linejoin:miter;stroke-miterlimit:4;stroke-dasharray:none;stroke-dashoffset:0;stroke-opacity:1;color-rendering:auto;image-rendering:optimizeQuality;shape-rendering:geometricPrecision;text-rendering:geometricPrecision;enable-background:accumulate"
         inkscape:export-xdpi="84.330002"
         inkscape:export-ydpi="84.330002"
         sodipodi:nodetypes="csccc" />
    </g>
  </g>
</svg>
