<?xml version="1.0" encoding="UTF-8" standalone="no"?>
<!-- Created with Inkscape (http://www.inkscape.org/) -->

<svg
   xmlns:dc="http://purl.org/dc/elements/1.1/"
   xmlns:cc="http://creativecommons.org/ns#"
   xmlns:rdf="http://www.w3.org/1999/02/22-rdf-syntax-ns#"
   xmlns:svg="http://www.w3.org/2000/svg"
   xmlns="http://www.w3.org/2000/svg"
   xmlns:sodipodi="http://sodipodi.sourceforge.net/DTD/sodipodi-0.dtd"
   xmlns:inkscape="http://www.inkscape.org/namespaces/inkscape"
   id="svg7384"
   sodipodi:docname="nes-30.svg"
   version="1.1"
   inkscape:version="0.91 r13725"
   height="225"
   width="400">
  <metadata
     id="metadata90">
    <rdf:RDF>
      <cc:Work
         rdf:about="">
        <dc:format>image/svg+xml</dc:format>
        <dc:type
           rdf:resource="http://purl.org/dc/dcmitype/StillImage" />
        <dc:title>Gnome Symbolic Icon Theme</dc:title>
      </cc:Work>
    </rdf:RDF>
  </metadata>
  <sodipodi:namedview
     inkscape:cy="140.82083"
     pagecolor="#e5e6e4"
     borderopacity="1"
     showborder="true"
     inkscape:bbox-paths="false"
     guidetolerance="10"
     inkscape:object-paths="false"
     inkscape:window-width="2560"
     showguides="true"
     inkscape:object-nodes="true"
     inkscape:snap-bbox="true"
     inkscape:pageshadow="2"
     inkscape:guide-bbox="true"
     inkscape:snap-nodes="false"
     bordercolor="#666666"
     objecttolerance="10"
     id="namedview88"
     showgrid="false"
     inkscape:window-maximized="1"
     inkscape:window-x="2560"
     inkscape:snap-global="true"
     inkscape:window-y="0"
     gridtolerance="10"
     inkscape:window-height="1403"
     inkscape:snap-others="false"
     inkscape:snap-to-guides="true"
     inkscape:current-layer="g14552"
     inkscape:snap-bbox-midpoints="false"
     inkscape:zoom="1"
     inkscape:cx="151.24445"
     inkscape:snap-grids="true"
     inkscape:pageopacity="1"
     inkscape:showpageshadow="false">
    <inkscape:grid
       spacingx="1px"
       spacingy="1px"
       id="grid4866"
       empspacing="2"
       enabled="true"
       type="xygrid"
       snapvisiblegridlinesonly="true"
       visible="true" />
  </sodipodi:namedview>
  <title
     id="title9167">Gnome Symbolic Icon Theme</title>
  <defs
     id="defs7386" />
  <g
     inkscape:label="figures"
     transform="translate(-569.10098,-638)"
     inkscape:groupmode="layer"
     id="layer12"
     style="display:inline">
    <g
       id="g14552">
      <line
         inkscape:export-ydpi="81.68"
         inkscape:export-xdpi="81.68"
         style="clip-rule:evenodd;fill:none;fill-rule:evenodd;stroke:#757475;stroke-width:0.26999399;stroke-linejoin:bevel;image-rendering:optimizeQuality;shape-rendering:geometricPrecision;text-rendering:geometricPrecision"
         id="line87"
         y2="813.96222"
         x2="805.73279"
         y1="813.96222"
         x1="924.81726"
         class="fil0 str2" />
      <line
         inkscape:export-ydpi="81.68"
         inkscape:export-xdpi="81.68"
         style="clip-rule:evenodd;fill:none;fill-rule:evenodd;stroke:#757475;stroke-width:0.26999399;stroke-linejoin:bevel;image-rendering:optimizeQuality;shape-rendering:geometricPrecision;text-rendering:geometricPrecision"
         id="line89"
         y2="813.96222"
         x2="614.3847"
         y1="813.96222"
         x1="711.63953"
         class="fil0 str2" />
      <path
         class="fil0 str3"
         d="m 938.51723,826.27898 0,-142.57905 0,-0.15036 c -0.15055,-2.25536 -1.95714,-3.9093 -4.06483,-3.9093 l -50.28348,0 -229.13591,0 -50.28344,0 c -2.10768,0 -3.76372,1.50358 -4.06482,3.45823 l 0,0.60143 0,143.57905 c 0,4.31645 3.06315,6.96002 7.31482,6.96002 l 321.45283,0 c 5.35769,0 9.06483,-3.20465 9.06483,-7.96002 z"
         id="path8346"
         inkscape:connector-curvature="0"
         style="clip-rule:evenodd;fill:#cacac4;fill-opacity:1;fill-rule:evenodd;stroke:#babdb6;stroke-width:3;stroke-miterlimit:4;stroke-dasharray:none;stroke-opacity:1;image-rendering:optimizeQuality;shape-rendering:geometricPrecision;text-rendering:geometricPrecision"
         inkscape:export-xdpi="81.68"
         inkscape:export-ydpi="81.68"
         sodipodi:nodetypes="sccsccsccssss" />
      <line
         inkscape:export-ydpi="81.68"
         inkscape:export-xdpi="81.68"
         style="clip-rule:evenodd;fill:none;fill-rule:evenodd;stroke:#757475;stroke-width:0.26999399;stroke-linejoin:bevel;image-rendering:optimizeQuality;shape-rendering:geometricPrecision;text-rendering:geometricPrecision"
         id="line105"
         y2="733.6712"
         x2="882.96454"
         y1="733.6712"
         x1="908.40735"
         class="fil0 str2" />
      <line
         inkscape:export-ydpi="81.68"
         inkscape:export-xdpi="81.68"
         style="clip-rule:evenodd;fill:none;fill-rule:evenodd;stroke:#757475;stroke-width:0.26999399;stroke-linejoin:bevel;image-rendering:optimizeQuality;shape-rendering:geometricPrecision;text-rendering:geometricPrecision"
         id="line107"
         y2="733.6712"
         x2="816.12067"
         y1="733.6712"
         x1="841.41296"
         class="fil0 str2" />
      <path
         inkscape:export-ydpi="81.68"
         inkscape:export-xdpi="81.68"
         style="clip-rule:evenodd;fill:none;fill-rule:evenodd;stroke:#757475;stroke-width:0.26999399;stroke-linejoin:bevel;image-rendering:optimizeQuality;shape-rendering:geometricPrecision;text-rendering:geometricPrecision"
         inkscape:connector-curvature="0"
         id="path123"
         d="m 611.82539,811.55645 c 0,0.60143 0.3011,1.20286 0.75275,1.65394 0.45164,0.60143 1.05384,0.75179 1.80659,0.75179"
         class="fil0 str2" />
      <path
         sodipodi:nodetypes="sccsccsccssss"
         inkscape:export-ydpi="81.68"
         inkscape:export-xdpi="81.68"
         style="clip-rule:evenodd;fill:#eeeeec;fill-opacity:1;fill-rule:evenodd;stroke:#babdb6;stroke-width:0.99999994;stroke-miterlimit:4;stroke-dasharray:none;stroke-opacity:1;image-rendering:optimizeQuality;shape-rendering:geometricPrecision;text-rendering:geometricPrecision"
         inkscape:connector-curvature="0"
         id="path139"
         d="m 936.52314,821.21337 0,-136.69605 0,-0.1486 c -0.14877,-2.22872 -1.93402,-3.86314 -4.01683,-3.86314 l -49.68988,0 -226.43093,0 -49.68983,0 c -2.0828,0 -3.7193,1.48582 -4.01684,3.41741 l 0,0.59433 0,136.69605 c 0,2.22874 1.78527,4.16032 4.01684,4.16032 l 325.81064,0 c 2.08281,0 4.01683,-1.93158 4.01683,-4.16032 z"
         class="fil0 str3" />
      <path
         inkscape:export-ydpi="81.68"
         inkscape:export-xdpi="81.68"
         style="clip-rule:evenodd;fill:#cc0000;fill-opacity:1;fill-rule:evenodd;stroke:none;stroke-width:2;stroke-miterlimit:4;stroke-dasharray:none;stroke-opacity:1;image-rendering:optimizeQuality;shape-rendering:geometricPrecision;text-rendering:geometricPrecision"
         inkscape:connector-curvature="0"
         id="path143"
         d="m 872.66892,676.1105 0,2.60367 62.19553,0 c 2.607,0 4.84157,2.04575 5.02778,4.8354 l 0,-3.16161 c 0,-1.85976 -0.74492,-3.53356 -2.04838,-4.83539 -1.30354,-1.30185 -2.9794,-1.85978 -4.84156,-1.85978 l -24.39405,0 -8.93828,0 -24.58026,0 c -1.30349,0 -2.23457,0.92989 -2.42078,2.23173 l 0,0.18598 z"
         class="fil0 str3" />
      <path
         d="m 831.32615,739.12687 c -7.02762,0 -12.75382,5.71891 -12.75382,12.73759 0,7.01867 5.7262,12.73759 12.75382,12.73759 7.02762,0 12.75382,-5.71892 12.75382,-12.73759 0,-7.01868 -5.7262,-12.73759 -12.75382,-12.73759 z m 30.86259,-30.82332 c -7.02762,0 -12.75382,5.71891 -12.75382,12.73759 0,7.01867 5.7262,12.73759 12.75382,12.73759 7.02762,0 12.75382,-5.71892 12.75382,-12.73759 0,-7.01868 -5.7262,-12.73759 -12.75382,-12.73759 z m 30.86259,30.82332 c -7.02762,0 -12.75382,5.71891 -12.75382,12.73759 0,7.01867 5.7262,12.73759 12.75382,12.73759 7.02762,0 12.75382,-5.71892 12.75382,-12.73759 0,-7.01868 -5.7262,-12.73759 -12.75382,-12.73759 z m -30.86259,30.82332 c -7.02762,0 -12.75382,5.71891 -12.75382,12.73759 0,7.01867 5.7262,12.73759 12.75382,12.73759 7.02762,0 12.75382,-5.71892 12.75382,-12.73759 0,-7.01868 -5.7262,-12.73759 -12.75382,-12.73759 z"
         style="clip-rule:nonzero;fill:#babdb6;fill-opacity:1;fill-rule:nonzero;stroke:none;stroke-width:0.57874099;image-rendering:auto;shape-rendering:auto;text-rendering:auto;color:#000000;display:inline;overflow:visible;visibility:visible;opacity:1;isolation:auto;mix-blend-mode:normal;color-interpolation:sRGB;color-interpolation-filters:linearRGB;solid-color:#000000;solid-opacity:1;stroke-linecap:butt;stroke-linejoin:miter;stroke-miterlimit:4;stroke-dasharray:none;stroke-dashoffset:0;stroke-opacity:1;filter-blend-mode:normal;filter-gaussianBlur-deviation:0;color-rendering:auto;enable-background:accumulate"
         id="path131" />
      <path
         inkscape:export-ydpi="81.68"
         inkscape:export-xdpi="81.68"
         style="clip-rule:evenodd;fill:none;fill-rule:evenodd;stroke:#757475;stroke-width:0.26999399;image-rendering:optimizeQuality;shape-rendering:geometricPrecision;text-rendering:geometricPrecision"
         inkscape:connector-curvature="0"
         id="path159"
         d="m 768.0955,778.17705 c -0.9033,1.50357 -0.9033,3.15751 0,4.66109 0.7527,1.35322 2.2582,2.25536 3.9142,2.25536 l 16.4099,0 c 1.6561,0 3.1616,-0.90214 4.0648,-2.25536 0.7528,-1.50358 0.7528,-3.15752 0,-4.66109 -0.9032,-1.35322 -2.4087,-2.25537 -4.0648,-2.25537 l -16.4099,0 c -1.656,0 -3.1615,0.90215 -3.9142,2.25537 z"
         class="fil0 str3" />
      <path
         d="m 728.9527,775.92168 c -1.6561,0 -3.1615,0.90215 -4.0648,2.25537 -0.7528,1.50357 -0.7528,3.15751 0,4.66109 0.9032,1.35322 2.4087,2.25536 4.0648,2.25536 l 16.4098,0 c 1.6561,0 3.1616,-0.90214 3.9143,-2.25536 0.9033,-1.50358 0.9033,-3.15752 0,-4.66109 -0.7527,-1.35322 -2.2582,-2.25537 -3.9143,-2.25537 z"
         style="color:#000000;clip-rule:nonzero;display:inline;overflow:visible;visibility:visible;opacity:1;isolation:auto;mix-blend-mode:normal;color-interpolation:sRGB;color-interpolation-filters:linearRGB;solid-color:#000000;solid-opacity:1;fill:#babdb6;fill-opacity:1;fill-rule:nonzero;stroke:none;stroke-width:0.57874101;stroke-linecap:butt;stroke-linejoin:miter;stroke-miterlimit:4;stroke-dasharray:none;stroke-dashoffset:0;stroke-opacity:1;color-rendering:auto;image-rendering:auto;shape-rendering:auto;text-rendering:auto;enable-background:accumulate"
         id="path4316"
         inkscape:connector-curvature="0"
         sodipodi:nodetypes="sccssccss" />
      <path
         sodipodi:nodetypes="ccsssscccsscccsssscccsscccsssscccsscccsssscccsscccsscsscsscsscssssscsscsssssscsscsscscsssscscscsscscscsscscscssssscsscsscsscsscsscssssscsssssscsscsscsscs"
         inkscape:export-ydpi="81.68"
         inkscape:export-xdpi="81.68"
         style="clip-rule:evenodd;fill:#cacac4;fill-opacity:1;fill-rule:evenodd;stroke:#babdb6;stroke-width:1;stroke-miterlimit:4;stroke-dasharray:none;stroke-opacity:1;image-rendering:optimizeQuality;shape-rendering:geometricPrecision;text-rendering:geometricPrecision"
         inkscape:connector-curvature="0"
         id="path155"
         d="m 649.86552,742.69059 0,-2.54549 0,-5.5402 c 0,-0.29944 0.29945,-0.59892 0.59892,-0.59892 l 21.71152,0 c 0.29944,0 0.59892,0.29948 0.59892,0.59892 l 0,5.5402 0,2.54549 0,2.39579 0,7.33698 c 0,0.44924 0.29953,0.74871 0.74868,0.74871 l 2.39579,0 7.33701,0 2.39572,0 5.68997,0 c 0.29944,0 0.59892,0.29947 0.59892,0.59892 l 0,21.71152 c 0,0.29947 -0.29948,0.44921 -0.59892,0.44921 l -5.68997,0 -2.39572,0 -2.39579,0 -7.33701,0 c -0.44915,0 -0.74868,0.44923 -0.74868,0.89842 l 0,2.39579 0,7.33698 0,2.39578 0,5.68991 c 0,0.29947 -0.29948,0.44914 -0.59892,0.44914 l -21.71152,0 c -0.29947,0 -0.59892,-0.14968 -0.59892,-0.44914 l 0,-5.68991 0,-2.39578 0,-2.5455 0,-7.18727 c 0,-0.44919 -0.29947,-0.89842 -0.74871,-0.89842 l -2.39579,0 -7.33698,0 -2.39572,0 -5.39049,0 c -0.29948,0 -0.59895,-0.14974 -0.59895,-0.44921 l 0,-21.71152 c 0,-0.29945 0.29947,-0.59892 0.59895,-0.59892 l 5.39049,0 2.39572,0 2.39579,0 7.33698,0 c 0.44924,0 0.74871,-0.29947 0.74871,-0.74871 l 0,-2.54547 z m 63.03831,-5.3774 c -0.74868,-0.74869 -1.19792,-1.79678 -1.19792,-2.84494 l 0,-7.89819 c 0,-1.04816 0.44924,-2.09628 1.19792,-2.84494 0.74865,-0.74871 1.79681,-1.19787 2.84497,-1.19787 l 85.81101,0 c 1.04819,0 2.09635,0.44915 2.84497,1.19787 0.74868,0.74866 1.19793,1.79678 1.19793,2.84494 l 0,7.89819 c 0,1.04816 -0.44925,2.09625 -1.19793,2.84494 -0.74862,0.89839 -1.79678,1.19786 -2.84497,1.19786 l -85.81101,0 c -1.04816,0 -2.09632,-0.29947 -2.84497,-1.19786 z m 2.84497,6.20164 85.81101,0 c 1.04819,0 2.09635,0.44922 2.84497,1.19786 0.74868,0.74869 1.19793,1.79684 1.19793,2.84495 l 0,7.86045 c 0,1.04815 -0.44925,2.09626 -1.19793,2.84494 -0.74862,0.74872 -1.79678,1.19786 -2.84497,1.19786 l -85.81101,0 c -1.04816,0 -2.09632,-0.44914 -2.84497,-1.19786 -0.74868,-0.74868 -1.19792,-1.79679 -1.19792,-2.84494 l 0,-7.86045 c 0,-1.04811 0.44924,-2.09626 1.19792,-2.84495 0.74865,-0.74864 1.79681,-1.19786 2.84497,-1.19786 z m 96.87838,23.22896 0,-30.21932 c 0,-0.89843 0.29947,-1.64711 0.89842,-2.24604 0.44922,-0.44923 1.19783,-0.7487 2.09626,-0.7487 l 25.50898,0 c 0.74872,0 1.34763,-0.29948 1.79687,-0.74862 0.44915,-0.44924 0.74862,-1.04816 0.74862,-1.79687 l 0,-24.52942 c 0,-0.74871 -0.29947,-1.49734 -0.89839,-2.09634 -0.59895,-0.44915 -1.34762,-0.89839 -2.09625,-0.89839 l -35.07898,0 0,9.02052 c 0,1.04816 -0.44925,2.09632 -1.19793,2.845 -0.74862,0.74862 -1.79678,1.19787 -2.84497,1.19787 l -85.81101,0 c -1.04816,0 -2.09632,-0.44925 -2.84497,-1.19787 -0.74868,-0.74868 -1.19792,-1.79684 -1.19792,-2.845 l 0,-9.02052 -96.72862,0 c -0.74871,0 -1.34763,0.29947 -1.79681,0.74871 -0.44921,0.44921 -0.74868,1.04816 -0.74868,1.79678 l 0,105.26354 c 0,0.59892 0.29947,1.19787 0.74868,1.64707 0.44918,0.59895 1.0481,0.74872 1.79681,0.74872 l 96.72862,0 0,-7.05055 c 0,-1.04817 0.44924,-2.09633 1.19792,-2.84498 0.74865,-0.74867 1.79681,-1.19793 2.84497,-1.19793 l 85.81101,0 c 1.04819,0 2.09635,0.44926 2.84497,1.19793 0.74868,0.74865 1.19793,1.79681 1.19793,2.84498 l 0,7.05055 118.56955,0 c 0.59906,0 1.34765,-0.14977 1.79687,-0.74872 0.44918,-0.4492 0.59897,-1.04815 0.59897,-1.64707 l 0,-105.26354 c 0,-0.74862 -0.14979,-1.34757 -0.59897,-1.79678 -0.44922,-0.44924 -1.19781,-0.74871 -1.79687,-0.74871 l -41.55759,0 c -0.89839,0 -1.64711,0.44923 -2.24602,0.89839 -0.44925,0.59899 -0.74872,1.34763 -0.74872,2.09634 l 0,24.52942 c 0,0.74871 0.14977,1.34763 0.59895,1.79687 0.44921,0.44914 1.19792,0.74862 1.79684,0.74862 l 25.39356,0 c 0.74869,0 1.49737,0.29947 2.09632,0.7487 0.59891,0.59892 0.89842,1.34761 0.89842,2.24604 l 0,30.21932 c 0,0.74872 -0.29951,1.4974 -0.89842,2.09635 -0.59895,0.44921 -1.34763,0.74868 -2.09632,0.74868 l -25.39356,0 c -0.59892,0 -1.34763,0.29947 -1.79684,0.74863 -0.44918,0.44924 -0.59895,1.04815 -0.59895,1.79687 l 0,25.65869 c 0,0.74868 -0.29944,1.49733 -0.89839,2.09631 -0.59892,0.44918 -1.34763,0.74862 -2.09625,0.74862 l -29.95425,0 c -0.89839,0 -1.64707,-0.29944 -2.09625,-0.74862 -0.59898,-0.59898 -0.89846,-1.34763 -0.89846,-2.09631 l 0,-25.65869 c 0,-0.74872 -0.29947,-1.34763 -0.74862,-1.79687 -0.44924,-0.44916 -1.04815,-0.74863 -1.79687,-0.74863 l -25.50898,0 c -0.89843,0 -1.64704,-0.29947 -2.09626,-0.74868 -0.59895,-0.59895 -0.89842,-1.34763 -0.89842,-2.09635 z m -96.65446,-3.19056 85.33841,0 c 1.19793,0 2.24604,0.44918 3.14447,1.19786 0.74865,0.89839 1.19786,1.94658 1.19786,3.14441 l 0,24.34428 c 0,1.19792 -0.44921,2.24602 -1.19786,3.14447 -0.89843,0.74863 -1.94654,1.19787 -3.14447,1.19787 l -85.33841,0 c -1.04816,0 -2.24602,-0.44924 -2.99471,-1.19787 -0.74862,-0.89845 -1.34757,-1.94655 -1.34757,-3.14447 l 0,-24.34428 c 0,-1.19783 0.59895,-2.24602 1.34757,-3.14441 0.74869,-0.74868 1.94655,-1.19786 2.99471,-1.19786 z"
         class="fil0 str3" />
      <path
         inkscape:export-ydpi="81.68"
         inkscape:export-xdpi="81.68"
         style="color:#000000;clip-rule:nonzero;display:inline;overflow:visible;visibility:visible;opacity:1;isolation:auto;mix-blend-mode:normal;color-interpolation:sRGB;color-interpolation-filters:linearRGB;solid-color:#000000;solid-opacity:1;fill:#babdb6;fill-opacity:1;fill-rule:nonzero;stroke:none;stroke-width:0.57874099;stroke-linecap:butt;stroke-linejoin:miter;stroke-miterlimit:4;stroke-dasharray:none;stroke-dashoffset:0;stroke-opacity:1;color-rendering:auto;image-rendering:auto;shape-rendering:auto;text-rendering:auto;enable-background:accumulate;filter-blend-mode:normal;filter-gaussianBlur-deviation:0"
         inkscape:connector-curvature="0"
         id="path153"
         d="m 693.17958,776.12705 0,-22.80706 c 0,-0.3146 -0.31498,-0.62919 -0.62999,-0.62919 l -5.98463,0 -2.51983,0 -7.71703,0 -2.51987,0 c -0.47244,0 -0.78743,-0.31456 -0.78743,-0.78643 l 0,-7.70721 0,-2.51664 0,-2.67396 0,-5.81971 c 0,-0.3146 -0.31497,-0.62916 -0.62999,-0.62916 l -22.83612,0 c -0.31498,0 -0.62996,0.31456 -0.62996,0.62916 l 0,5.81971 0,2.67396 0,7.54993 0,2.67392 c 0,0.47187 -0.31497,0.78643 -0.78743,0.78643 l -7.71703,0 -2.51986,0 -2.51983,0 -5.66965,0 c -0.31502,0 -0.63,0.31459 -0.63,0.62919 l 0,22.80706 c 0,0.31455 0.31498,0.47187 0.63,0.47187 l 5.66965,0 2.51983,0 7.71703,0 2.51986,0 c 0.47246,0 0.78743,0.47187 0.78743,0.94371 l 0,7.54993 0,2.67396 0,2.51664 0,5.97699 c 0,0.31459 0.31498,0.47187 0.62996,0.47187 l 22.83612,0 c 0.31502,0 0.62999,-0.15728 0.62999,-0.47187 l 0,-5.97699 0,-2.51664 0,-7.70725 0,-2.51664 c 0,-0.47184 0.31499,-0.94371 0.78743,-0.94371 l 7.71703,0 2.51987,0 2.51983,0 5.98463,0 c 0.31501,0 0.62999,-0.15732 0.62999,-0.47187 z"
         class="fil0 str3" />
      <path
         class="fil0 str3"
         d="m 666.42256,676.1105 0,2.60367 -62.19553,0 c -2.607,0 -4.84157,2.04575 -5.02778,4.8354 l 0,-3.16161 c 0,-1.85976 0.74492,-3.53356 2.04838,-4.83539 1.30354,-1.30185 2.9794,-1.85978 4.84156,-1.85978 l 24.39405,0 8.93828,0 24.58026,0 c 1.30349,0 2.23457,0.92989 2.42078,2.23173 l 0,0.18598 z"
         id="path8348"
         inkscape:connector-curvature="0"
         style="clip-rule:evenodd;fill:#cc0000;fill-opacity:1;fill-rule:evenodd;stroke:none;stroke-width:2;stroke-miterlimit:4;stroke-dasharray:none;stroke-opacity:1;image-rendering:optimizeQuality;shape-rendering:geometricPrecision;text-rendering:geometricPrecision"
         inkscape:export-xdpi="81.68"
         inkscape:export-ydpi="81.68" />
      <path
         id="path18287"
         style="color:#000000;clip-rule:nonzero;display:inline;overflow:visible;visibility:visible;opacity:1;isolation:auto;mix-blend-mode:normal;color-interpolation:sRGB;color-interpolation-filters:linearRGB;solid-color:#000000;solid-opacity:1;fill:#cc0000;fill-opacity:1;fill-rule:nonzero;stroke:none;stroke-width:0.57874101;stroke-linecap:butt;stroke-linejoin:miter;stroke-miterlimit:4;stroke-dasharray:none;stroke-dashoffset:0;stroke-opacity:1;color-rendering:auto;image-rendering:auto;shape-rendering:auto;text-rendering:auto;enable-background:accumulate"
         d="m 768.0955,782.83814 c -0.9033,-1.50358 -0.9033,-3.15752 0,-4.66109 0.7527,-1.35322 2.2582,-2.25537 3.9142,-2.25537 l 16.4099,0 c 1.6561,0 3.1616,0.90215 4.0648,2.25537 0.7528,1.50357 0.7528,3.15751 0,4.66109 -0.9032,1.35322 -2.4087,2.25536 -4.0648,2.25536 l -16.4099,0 c -1.656,0 -3.1615,-0.90214 -3.9142,-2.25536 z"
         inkscape:connector-curvature="0"
         sodipodi:nodetypes="ccssccssc" />
    </g>
  </g>
</svg>
