<?xml version="1.0" encoding="UTF-8" standalone="no"?>
<!-- Created with Inkscape (http://www.inkscape.org/) -->

<svg
   xmlns:dc="http://purl.org/dc/elements/1.1/"
   xmlns:cc="http://creativecommons.org/ns#"
   xmlns:rdf="http://www.w3.org/1999/02/22-rdf-syntax-ns#"
   xmlns:svg="http://www.w3.org/2000/svg"
   xmlns="http://www.w3.org/2000/svg"
   xmlns:sodipodi="http://sodipodi.sourceforge.net/DTD/sodipodi-0.dtd"
   xmlns:inkscape="http://www.inkscape.org/namespaces/inkscape"
   id="svg7384"
   sodipodi:docname="zero.svg"
   version="1.1"
   inkscape:version="0.91 r13725"
   height="225"
   width="400">
  <metadata
     id="metadata90">
    <rdf:RDF>
      <cc:Work
         rdf:about="">
        <dc:format>image/svg+xml</dc:format>
        <dc:type
           rdf:resource="http://purl.org/dc/dcmitype/StillImage" />
        <dc:title>Gnome Symbolic Icon Theme</dc:title>
      </cc:Work>
    </rdf:RDF>
  </metadata>
  <sodipodi:namedview
     inkscape:cy="64.132513"
     pagecolor="#e5e6e4"
     borderopacity="1"
     showborder="true"
     inkscape:bbox-paths="false"
     guidetolerance="10"
     inkscape:object-paths="false"
     inkscape:window-width="2560"
     showguides="true"
     inkscape:object-nodes="true"
     inkscape:snap-bbox="true"
     inkscape:pageshadow="2"
     inkscape:guide-bbox="true"
     inkscape:snap-nodes="false"
     bordercolor="#666666"
     objecttolerance="10"
     id="namedview88"
     showgrid="false"
     inkscape:window-maximized="1"
     inkscape:window-x="2560"
     inkscape:snap-global="true"
     inkscape:window-y="0"
     gridtolerance="10"
     inkscape:window-height="1403"
     inkscape:snap-others="false"
     inkscape:snap-to-guides="true"
     inkscape:current-layer="g9377"
     inkscape:snap-bbox-midpoints="false"
     inkscape:zoom="1"
     inkscape:cx="154.27598"
     inkscape:snap-grids="true"
     inkscape:pageopacity="1"
     inkscape:showpageshadow="false">
    <inkscape:grid
       spacingx="1px"
       spacingy="1px"
       id="grid4866"
       empspacing="2"
       enabled="true"
       type="xygrid"
       snapvisiblegridlinesonly="true"
       visible="true" />
  </sodipodi:namedview>
  <title
     id="title9167">Gnome Symbolic Icon Theme</title>
  <defs
     id="defs7386" />
  <g
     inkscape:label="figures"
     transform="translate(-569.10098,-638)"
     inkscape:groupmode="layer"
     id="layer12"
     style="display:inline">
    <g
       id="g9377"
       transform="translate(6,740)">
      <path
         class="fil1 str6"
         d="m 793.59226,-50.50124 c 0.19551,-0.58653 0.39101,-1.17305 0.58652,-1.95508 0.58653,-0.97754 1.36856,-2.02558 2.34609,-2.80761 1.17305,-0.58653 2.5416,-0.97754 3.71465,-0.97754 l 34.21382,0 c 5.86523,0 11.73046,0.78203 17.40018,2.5416 5.66971,1.75957 11.14393,4.49667 15.83611,8.21131 9.57987,7.03828 16.61814,17.20467 21.50583,27.762082 4.30116,8.79784 6.64725,18.76873 6.64725,28.73961 0,10.55741 -2.73711,21.31033 -8.21132,30.69469 -5.27869,9.18886 -13.09901,17.00916 -22.48337,22.28786 -9.18886,5.47422 -19.94177,8.21132 -30.69469,8.21132 l -67.2546,0 -67.45011,0 c -10.55741,0 -21.31033,-2.7371 -30.69469,-8.21132 -9.18886,-5.2787 -17.00916,-13.099 -22.48337,-22.28786 -5.27871,-9.38436 -8.21132,-20.13728 -8.21132,-30.69469 0,-9.97088 2.5416,-19.94177 7.03827,-28.5441 5.0832,-10.752922 11.73046,-20.919312 21.11482,-27.957592 4.88769,-3.71464 10.16639,-6.45174 15.83611,-8.21131 5.66972,-1.75957 11.53495,-2.5416 17.40018,-2.5416 l 34.40933,0 c 1.17304,0 2.5416,0.39101 3.51913,0.97754 1.17305,0.78203 1.95508,1.83007 2.3461,2.80761 0.39101,0.78203 0.58652,1.36855 0.78203,1.95508 l 26.39352,0 26.39352,0 z"
         id="path218"
         inkscape:connector-curvature="0"
         style="color:#000000;clip-rule:evenodd;display:inline;overflow:visible;visibility:visible;opacity:1;isolation:auto;mix-blend-mode:normal;color-interpolation:sRGB;color-interpolation-filters:linearRGB;solid-color:#000000;solid-opacity:1;fill:#ffffff;fill-opacity:1;fill-rule:evenodd;stroke:#babdb6;stroke-width:3;stroke-linecap:butt;stroke-linejoin:miter;stroke-miterlimit:4;stroke-dasharray:none;stroke-dashoffset:0;stroke-opacity:1;color-rendering:auto;image-rendering:optimizeQuality;shape-rendering:geometricPrecision;text-rendering:geometricPrecision;enable-background:accumulate"
         inkscape:export-xdpi="139.14"
         inkscape:export-ydpi="139.14"
         sodipodi:nodetypes="cccsssccsccscsccsccssscccccc" />
      <path
         inkscape:connector-curvature="0"
         id="path294"
         style="color:#000000;clip-rule:evenodd;display:inline;overflow:visible;visibility:visible;opacity:1;isolation:auto;mix-blend-mode:normal;color-interpolation:sRGB;color-interpolation-filters:linearRGB;solid-color:#000000;solid-opacity:1;fill:#eeeeec;fill-opacity:1;fill-rule:evenodd;stroke:#babdb6;stroke-width:1;stroke-linecap:butt;stroke-linejoin:bevel;stroke-miterlimit:4;stroke-dasharray:none;stroke-dashoffset:0;stroke-opacity:1;marker:none;marker-start:none;marker-mid:none;marker-end:none;paint-order:normal;color-rendering:auto;image-rendering:optimizeQuality;shape-rendering:geometricPrecision;text-rendering:geometricPrecision;enable-background:accumulate"
         d="m 687.62716,-20.03511 c 0,-2.7371 1.95507,-5.08319 4.69218,-5.669712 l 0,0 c 2.34609,-0.58653 4.71091,-0.78203 7.25251,-0.78203 l 0,0 c 2.7371,0 4.81802,0.1955 7.35962,0.78203 l 0,0 c 2.73711,0.586522 4.69218,2.932612 4.69218,5.669712 l 0,0 0,14.8398455 0,0 c 0,2.15059 1.56406,3.71465 3.71465,3.71465 l 0,0 14.92823,0 0,0 c 2.73711,0 5.0832,1.9550698 5.66972,4.69218 l 0,0 c 0.39102,2.5416 0.78203,4.7109133 0.78203,7.4480145 l 0,0 c 0,2.5416 -0.39101,5.0832 -0.78203,7.42929 l 0,0 c -0.58652,2.73711 -2.93261,4.515403 -5.66972,4.515403 l 0,0 -14.92823,0 0,0 c -2.15059,0 -3.71465,1.75957 -3.71465,3.71465 l 0,0 0,14.839837 0,0 c 0,2.73711 -1.95507,5.0832 -4.69218,5.66972 l 0,0 c -2.5416,0.58653 -4.62252,0.78203 -7.35962,0.78203 l 0,0 c -2.5416,0 -4.90642,-0.1955 -7.25251,-0.78203 l 0,0 c -2.73711,-0.58652 -4.69218,-2.93261 -4.69218,-5.66972 l 0,0 0,-14.839837 0,0 c 0,-1.95508 -1.93635,-3.71465 -3.89143,-3.71465 l 0,0 -14.66306,0 0,0 c -0.39102,0 -0.78203,0 -1.36856,-0.1955 l 0,0 c -2.15058,-0.39102 -3.91015,-1.973813 -4.30116,-4.319903 l 0,0 c -0.58653,-2.34609 -0.78203,-4.88769 -0.78203,-7.42929 l 0,0 c 0,-2.7371012 0.1955,-4.9064145 0.78203,-7.4480145 l 0,0 c 0.39101,-2.1505901 2.15058,-3.9101502 4.30116,-4.49668 l 0,0 c 0.58653,-0.1955 0.97754,-0.1955 1.36856,-0.1955 l 0,0 14.66306,0 0,0 c 1.95508,0 3.89143,-1.56406 3.89143,-3.71465 l 0,0 z"
         inkscape:export-xdpi="139.14"
         inkscape:export-ydpi="139.14"
         sodipodi:nodetypes="cccccccccccccccccccccccccccccccccccccccccccccccccccccccccccc" />
      <path
         class="fil1 str7"
         d="m 645.39752,-16.691279 c 5.27871,-10.361902 13.68553,-18.964242 23.65642,-24.633962 9.38436,-5.2787 20.13728,-8.21131 30.69469,-8.21131 13.68553,0 27.37106,0 41.05659,0"
         id="path312"
         inkscape:connector-curvature="0"
         style="color:#000000;clip-rule:evenodd;display:inline;overflow:visible;visibility:visible;opacity:1;isolation:auto;mix-blend-mode:normal;color-interpolation:sRGB;color-interpolation-filters:linearRGB;solid-color:#000000;solid-opacity:1;fill:none;fill-opacity:1;fill-rule:evenodd;stroke:#babdb6;stroke-width:1;stroke-linecap:butt;stroke-linejoin:bevel;stroke-miterlimit:4;stroke-dasharray:none;stroke-dashoffset:0;stroke-opacity:1;marker:none;marker-start:none;marker-mid:none;marker-end:none;paint-order:normal;color-rendering:auto;image-rendering:optimizeQuality;shape-rendering:geometricPrecision;text-rendering:geometricPrecision;enable-background:accumulate"
         inkscape:export-xdpi="139.14"
         inkscape:export-ydpi="139.14" />
      <path
         class="fil1 str7"
         d="m 793.59226,-49.536551 c 13.68553,0 27.17555,0 40.86108,0 10.75292,0 21.50583,2.93261 30.69469,8.21131 9.97089,5.66972 18.57322,14.07655 24.04743,24.242942"
         id="path314"
         inkscape:connector-curvature="0"
         style="color:#000000;clip-rule:evenodd;display:inline;overflow:visible;visibility:visible;opacity:1;isolation:auto;mix-blend-mode:normal;color-interpolation:sRGB;color-interpolation-filters:linearRGB;solid-color:#000000;solid-opacity:1;fill:none;fill-opacity:1;fill-rule:evenodd;stroke:#babdb6;stroke-width:1;stroke-linecap:butt;stroke-linejoin:bevel;stroke-miterlimit:4;stroke-dasharray:none;stroke-dashoffset:0;stroke-opacity:1;marker:none;marker-start:none;marker-mid:none;marker-end:none;paint-order:normal;color-rendering:auto;image-rendering:optimizeQuality;shape-rendering:geometricPrecision;text-rendering:geometricPrecision;enable-background:accumulate"
         inkscape:export-xdpi="139.14"
         inkscape:export-ydpi="139.14" />
      <path
         class="fil1 str7"
         d="m 769.10996,72.856932 c -0.0753,3.00127 -0.11138,2.94503 10,2.9904 10.03634,0.0451 10,0.0559 10,-2.9904"
         id="path220-6"
         inkscape:connector-curvature="0"
         style="color:#000000;clip-rule:nonzero;display:inline;overflow:visible;visibility:visible;opacity:1;isolation:auto;mix-blend-mode:normal;color-interpolation:sRGB;color-interpolation-filters:linearRGB;solid-color:#000000;solid-opacity:1;fill:#cc0000;fill-opacity:1;fill-rule:nonzero;stroke:#a40000;stroke-width:1.24969804;stroke-linecap:butt;stroke-linejoin:miter;stroke-miterlimit:4;stroke-dasharray:none;stroke-dashoffset:0;stroke-opacity:1;color-rendering:auto;image-rendering:auto;shape-rendering:auto;text-rendering:auto;enable-background:accumulate"
         sodipodi:nodetypes="csc"
         inkscape:export-xdpi="139.14"
         inkscape:export-ydpi="139.14" />
      <path
         sodipodi:nodetypes="csc"
         style="color:#000000;clip-rule:nonzero;display:inline;overflow:visible;visibility:visible;opacity:1;isolation:auto;mix-blend-mode:normal;color-interpolation:sRGB;color-interpolation-filters:linearRGB;solid-color:#000000;solid-opacity:1;fill:#cc0000;fill-opacity:1;fill-rule:nonzero;stroke:#a40000;stroke-width:1.24969804;stroke-linecap:butt;stroke-linejoin:miter;stroke-miterlimit:4;stroke-dasharray:none;stroke-dashoffset:0;stroke-opacity:1;color-rendering:auto;image-rendering:auto;shape-rendering:auto;text-rendering:auto;enable-background:accumulate"
         inkscape:connector-curvature="0"
         id="path5046"
         d="m 745.10996,72.856932 c -0.0753,3.00127 -0.11138,2.94503 10,2.9904 10.03634,0.0451 9.99999,0.0559 9.99999,-2.9904"
         class="fil1 str7"
         inkscape:export-xdpi="139.14"
         inkscape:export-ydpi="139.14" />
      <path
         id="circle10615"
         style="color:#000000;clip-rule:evenodd;display:inline;overflow:visible;visibility:visible;opacity:1;isolation:auto;mix-blend-mode:normal;color-interpolation:sRGB;color-interpolation-filters:linearRGB;solid-color:#000000;solid-opacity:1;fill:#eeeeec;fill-opacity:1;fill-rule:evenodd;stroke:#babdb6;stroke-width:1;stroke-linecap:butt;stroke-linejoin:bevel;stroke-miterlimit:4;stroke-dasharray:none;stroke-dashoffset:0;stroke-opacity:1;marker:none;marker-start:none;marker-mid:none;marker-end:none;paint-order:normal;color-rendering:auto;image-rendering:optimizeQuality;shape-rendering:geometricPrecision;text-rendering:geometricPrecision;enable-background:accumulate"
         d="M 807.27295,24.526295 A 13.435029,13.435029 0 0 1 793.83792,11.091266 13.435029,13.435029 0 0 1 807.27295,-2.3437634 13.435029,13.435029 0 0 1 820.70798,11.091266 13.435029,13.435029 0 0 1 807.27295,24.526295 Z m 54.00005,0 A 13.435029,13.435029 0 0 1 847.83792,11.091266 13.435029,13.435029 0 0 1 861.273,-2.3437634 13.435029,13.435029 0 0 1 874.708,11.091266 13.435029,13.435029 0 0 1 861.273,24.526295 Z M 847.70792,38.09127 A 13.435029,13.435029 0 0 1 834.27289,51.526299 13.435029,13.435029 0 0 1 820.83786,38.09127 13.435029,13.435029 0 0 1 834.27289,24.656241 13.435029,13.435029 0 0 1 847.70792,38.09127 Z m 0,-54.000001 a 13.435029,13.435029 0 0 1 -13.43503,13.4350286 13.435029,13.435029 0 0 1 -13.43503,-13.4350286 13.435029,13.435029 0 0 1 13.43503,-13.435029 13.435029,13.435029 0 0 1 13.43503,13.435029 z"
         inkscape:connector-curvature="0" />
      <g
         id="g10640">
        <circle
           r="11.625"
           cy="39.875"
           cx="781.72595"
           id="path10636"
           style="color:#000000;clip-rule:evenodd;display:inline;overflow:visible;visibility:visible;opacity:1;isolation:auto;mix-blend-mode:normal;color-interpolation:sRGB;color-interpolation-filters:linearRGB;solid-color:#000000;solid-opacity:1;fill:#eeeeec;fill-opacity:1;fill-rule:evenodd;stroke:#babdb6;stroke-width:1;stroke-linecap:butt;stroke-linejoin:bevel;stroke-miterlimit:4;stroke-dasharray:none;stroke-dashoffset:0;stroke-opacity:1;marker:none;marker-start:none;marker-mid:none;marker-end:none;paint-order:normal;color-rendering:auto;image-rendering:optimizeQuality;shape-rendering:geometricPrecision;text-rendering:geometricPrecision;enable-background:accumulate" />
        <circle
           style="color:#000000;clip-rule:evenodd;display:inline;overflow:visible;visibility:visible;opacity:1;isolation:auto;mix-blend-mode:normal;color-interpolation:sRGB;color-interpolation-filters:linearRGB;solid-color:#000000;solid-opacity:1;fill:#ffffff;fill-opacity:1;fill-rule:evenodd;stroke:#babdb6;stroke-width:1;stroke-linecap:butt;stroke-linejoin:bevel;stroke-miterlimit:4;stroke-dasharray:none;stroke-dashoffset:0;stroke-opacity:1;marker:none;marker-start:none;marker-mid:none;marker-end:none;paint-order:normal;color-rendering:auto;image-rendering:optimizeQuality;shape-rendering:geometricPrecision;text-rendering:geometricPrecision;enable-background:accumulate"
           id="circle10638"
           cx="781.72595"
           cy="39.875"
           r="7.625" />
      </g>
      <circle
         r="11.625"
         cy="39.875"
         cx="753.72595"
         id="circle10646"
         style="color:#000000;clip-rule:evenodd;display:inline;overflow:visible;visibility:visible;opacity:1;isolation:auto;mix-blend-mode:normal;color-interpolation:sRGB;color-interpolation-filters:linearRGB;solid-color:#000000;solid-opacity:1;fill:#eeeeec;fill-opacity:1;fill-rule:evenodd;stroke:#babdb6;stroke-width:1;stroke-linecap:butt;stroke-linejoin:bevel;stroke-miterlimit:4;stroke-dasharray:none;stroke-dashoffset:0;stroke-opacity:1;marker:none;marker-start:none;marker-mid:none;marker-end:none;paint-order:normal;color-rendering:auto;image-rendering:optimizeQuality;shape-rendering:geometricPrecision;text-rendering:geometricPrecision;enable-background:accumulate" />
      <path
         style="color:#000000;clip-rule:evenodd;display:inline;overflow:visible;visibility:visible;opacity:1;isolation:auto;mix-blend-mode:normal;color-interpolation:sRGB;color-interpolation-filters:linearRGB;solid-color:#000000;solid-opacity:1;fill:#ffffff;fill-opacity:1;fill-rule:evenodd;stroke:#babdb6;stroke-width:1;stroke-linecap:round;stroke-linejoin:round;stroke-miterlimit:4;stroke-dasharray:none;stroke-dashoffset:0;stroke-opacity:1;marker:none;marker-start:none;marker-mid:none;marker-end:none;paint-order:normal;color-rendering:auto;image-rendering:optimizeQuality;shape-rendering:geometricPrecision;text-rendering:geometricPrecision;enable-background:accumulate"
         d="m 180.625,-115.75 c -4.21117,0 -7.625,3.41383 -7.625,7.625 0,4.21117 3.41383,7.625 7.625,7.625 3.44607,-0.004 6.46129,-2.31843 7.35547,-5.64648 l -4.81905,-1.71094 4.93038,-1.77539 c -0.71723,-3.55544 -3.83974,-6.11356 -7.4668,-6.11719 z"
         transform="translate(573.10098,148)"
         id="circle10648"
         inkscape:connector-curvature="0"
         sodipodi:nodetypes="csccccc" />
      <path
         style="color:#000000;clip-rule:evenodd;display:inline;overflow:visible;visibility:visible;opacity:1;isolation:auto;mix-blend-mode:normal;color-interpolation:sRGB;color-interpolation-filters:linearRGB;solid-color:#000000;solid-opacity:1;fill:#eeeeec;fill-opacity:1;fill-rule:evenodd;stroke:none;stroke-width:3;stroke-linecap:butt;stroke-linejoin:miter;stroke-miterlimit:4;stroke-dasharray:none;stroke-dashoffset:0;stroke-opacity:1;color-rendering:auto;image-rendering:optimizeQuality;shape-rendering:geometricPrecision;text-rendering:geometricPrecision;enable-background:accumulate"
         d="m 700.31192,-54.92969 c -18.39093,0.506631 -32.50313,5.836339 -45.85156,24.52344 3.16225,-3.349191 5.35677,-5.750013 14.90625,-11.41992 9.38436,-5.2787 20.3879,-8.14844 30.94531,-8.14844 l 39.05664,0 c -0.0625,-1.9375 -1.23249,-4.762202 -5.52344,-4.83008 z"
         id="path10705"
         inkscape:connector-curvature="0"
         sodipodi:nodetypes="cccsccc" />
      <path
         sodipodi:nodetypes="cccsccc"
         inkscape:connector-curvature="0"
         id="path10707"
         d="m 834.267,-54.92969 c 18.39093,0.506631 32.50313,5.836339 45.85156,24.52344 -3.16225,-3.349191 -5.35677,-5.750013 -14.90625,-11.41992 -9.38436,-5.2787 -20.3879,-8.14844 -30.94531,-8.14844 l -39.05664,0 c 0.0625,-1.9375 1.23249,-4.762202 5.52344,-4.83008 z"
         style="color:#000000;clip-rule:evenodd;display:inline;overflow:visible;visibility:visible;opacity:1;isolation:auto;mix-blend-mode:normal;color-interpolation:sRGB;color-interpolation-filters:linearRGB;solid-color:#000000;solid-opacity:1;fill:#eeeeec;fill-opacity:1;fill-rule:evenodd;stroke:none;stroke-width:3;stroke-linecap:butt;stroke-linejoin:miter;stroke-miterlimit:4;stroke-dasharray:none;stroke-dashoffset:0;stroke-opacity:1;color-rendering:auto;image-rendering:optimizeQuality;shape-rendering:geometricPrecision;text-rendering:geometricPrecision;enable-background:accumulate" />
    </g>
  </g>
</svg>
